<svg width="29" height="29" viewBox="0 0 29 29" fill="none" xmlns="http://www.w3.org/2000/svg">
<path d="M2.02961 11.3238L23.8089 0.670752C24.6936 0.223585 25.3571 4.11708e-06 25.7995 4.12235e-06C26.7362 4.13352e-06 27.5819 0.762814 28.3365 2.28844C28.7788 3.18277 29 3.89298 29 4.41905C29 4.91883 28.8829 5.33969 28.6487 5.68164C28.4145 5.99728 28.1673 6.23402 27.9071 6.39184C27.6469 6.52336 27.2566 6.72064 26.7362 6.98368L22.5209 9.03538L22.5209 19.9646L26.7362 22.0163C27.2566 22.2794 27.6339 22.4898 27.8681 22.6476C28.1023 22.7791 28.3495 23.0159 28.6097 23.3578C28.8439 23.6735 28.961 24.0943 28.961 24.6204C28.961 25.1202 28.7398 25.8172 28.2974 26.7116C27.5689 28.2372 26.7362 29 25.7995 29C25.3571 29 24.6936 28.7764 23.8089 28.3293L1.99058 17.6762C1.3921 17.3868 0.910722 16.9528 0.546433 16.3742C0.182145 15.7692 1.65304e-07 15.1379 1.73146e-07 14.4803C1.90084e-07 13.0599 0.676537 12.0077 2.02961 11.3238ZM11.397 14.5197L16.7443 17.1238L16.7443 11.8762L11.397 14.5197Z" fill="#FB8D57"/>
</svg>
