<svg width="29" height="29" viewBox="0 0 29 29" fill="none" xmlns="http://www.w3.org/2000/svg">
<path d="M11.3238 26.9704L0.670749 5.19112C0.223583 4.30642 1.59791e-06 3.64289 1.55924e-06 3.20054C1.47734e-06 2.2638 0.762811 1.41813 2.28843 0.663527C3.18277 0.221176 3.89297 2.19493e-06 4.41905 2.14893e-06C4.91882 2.10524e-06 5.33968 0.117094 5.68163 0.35128C5.99728 0.585466 6.23402 0.832659 6.39184 1.09287C6.52336 1.35307 6.72064 1.74338 6.98367 2.26379L9.03537 6.47914L19.9646 6.47914L22.0163 2.26379C22.2794 1.74338 22.4898 1.36608 22.6476 1.1319C22.7791 0.897711 23.0159 0.650515 23.3578 0.390309C23.6735 0.156123 24.0943 0.0390305 24.6204 0.0390305C25.1202 0.0390304 25.8172 0.260207 26.7116 0.702557C28.2372 1.43114 29 2.26379 29 3.20054C29 3.64289 28.7764 4.30642 28.3292 5.19112L17.6762 27.0094C17.3868 27.6079 16.9528 28.0893 16.3742 28.4536C15.7692 28.8179 15.1379 29 14.4803 29C13.0599 29 12.0077 28.3235 11.3238 26.9704ZM14.5197 17.603L17.1238 12.2557L11.8762 12.2557L14.5197 17.603Z" fill="#FB8D57"/>
</svg>
